<svg viewBox="-1.4900000000000002 -0.29 1988.5170000000003 427.2950000000001" xmlns="http://www.w3.org/2000/svg" width="2500" height="537"><path d="M1966.373 6.821h-45.032c-12.866 0-20.654 7.788-20.654 20.315V158.17c0 48.08-26.41 75.166-62.977 75.166-38.26.339-60.268-24.378-60.268-71.78V27.475c0-12.528-7.788-20.315-20.654-20.315h-45.032c-12.866 0-20.654 7.787-20.654 20.315v140.513c0 89.387 47.064 139.836 117.49 139.836 42.323 0 75.166-13.882 98.19-42.323l3.724 17.606c2.709 11.512 10.158 17.607 22.347 17.607h32.843c12.866 0 20.653-7.788 20.653-20.315V27.136c.678-12.527-7.11-20.315-19.976-20.315zm-313.53 216.695h-80.923c-28.103 0-43-14.56-43-42.323V27.475c0-12.528-7.788-20.315-20.654-20.315h-46.386c-12.867 0-20.654 7.787-20.654 20.315v164.553c0 67.717 41.646 109.024 110.718 109.024h100.898c12.866 0 20.654-7.787 20.654-20.315v-36.906c0-12.866-7.788-20.315-20.654-20.315zM343.191 26.46c-1.355-13.205-8.465-19.638-21.331-19.638h-33.859c-10.835 0-18.622 4.402-24.378 13.882L180.67 158.846 103.473 21.042C98.393 11.562 89.929 7.16 79.094 7.16H42.527c-12.866 0-19.976 6.433-21.33 19.638L-.136 280.06c-1.354 13.882 5.756 20.992 19.3 20.992h41.307c12.867 0 20.654-6.433 21.331-19.638l9.142-141.867 49.434 88.032c5.078 9.48 13.543 13.882 24.378 13.882h28.102c10.835 0 18.623-3.724 24.379-13.882l55.866-94.465 6.433 147.962c.678 13.543 7.788 19.638 20.654 19.638h44.355c13.543 0 20.654-7.11 19.3-20.993zM1381.635 6.821h-35.213c-12.19 0-20.654 6.433-22.347 18.284l-2.031 14.559C1302.067 18.672 1273.287-.29 1224.869-.29c-80.922 0-140.851 62.638-140.851 153.04 0 88.71 55.866 154.396 135.434 154.396 50.11 0 82.954-20.992 102.93-42.323l3.386 17.606c2.032 11.512 9.82 17.607 22.008 17.607h34.197c12.867 0 20.654-7.788 20.654-20.316V26.46c-.338-11.85-8.126-19.638-20.992-19.638zm-138.143 226.853c-45.71 0-74.49-31.15-74.49-79.23 0-48.756 30.135-80.244 74.49-80.244 45.709 0 74.489 31.15 74.489 79.229 0 48.418-30.135 80.245-74.49 80.245zM1032.892 6.82h-35.214c-12.189 0-20.653 6.433-22.346 18.284L973.3 39.664C953.324 18.672 924.544-.29 876.126-.29c-80.922 0-140.513 58.914-140.513 149.316 0 86.001 55.19 146.947 134.757 146.947 49.434 0 78.89-20.316 98.867-41.647v14.56c0 50.788-28.78 82.953-90.064 82.953-25.055 0-49.772-5.079-72.796-15.236-12.189-5.756-22.008-3.047-27.764 8.803l-14.22 27.764c-5.756 11.512-3.725 20.992 7.11 27.087 34.197 18.96 75.843 26.748 116.135 26.748 100.898 0 165.23-62.638 165.23-149.993V27.136c.338-12.527-7.11-20.315-19.977-20.315zM894.747 224.193c-44.355 0-74.489-29.118-74.489-74.15 0-47.402 31.489-75.843 74.49-75.843 44.354 0 74.488 26.07 74.488 74.827 0 43.34-31.488 75.166-74.489 75.166zM683.81 6.821h-35.213c-12.189 0-20.654 6.433-22.347 18.284l-2.031 14.559C604.24 18.672 575.462-.29 527.382-.29c-80.922 0-140.851 62.638-140.851 153.04 0 88.71 55.866 154.396 135.434 154.396 50.11 0 82.954-20.992 102.93-42.323l3.386 17.606c2.031 11.512 9.819 17.607 22.008 17.607h33.52c12.866 0 20.654-7.788 20.654-20.316V26.46c0-11.85-7.788-19.638-20.654-19.638zM545.666 233.674c-45.71 0-74.489-31.15-74.489-79.23 0-48.756 30.134-80.244 74.489-80.244 45.71 0 74.489 31.15 74.489 79.229 0 48.418-30.134 80.245-74.489 80.245z" fill="#0e87fe"/></svg>