<svg height="799" width="2500" xmlns="http://www.w3.org/2000/svg" viewBox="0 0 1000 319.702"><path d="M182.483 225.641c-1.754 14.48-10.528 26.076-24.118 31.882-7.568 3.235-17.73 4.981-25.773 4.433-12.548-.48-24.336-3.531-35.202-9.11-3.882-1.993-9.669-5.974-14.112-9.703-1.126-.942-1.26-1.546-.515-2.603.403-.606 1.144-1.7 2.783-4.1 2.376-3.483 2.673-3.92 2.94-4.328.76-1.167 1.996-1.27 3.215-.31l.225.175.671.522c.478.372.76.591.875.677 11.719 9.178 25.367 14.471 39.146 15 19.17-.26 32.955-8.88 35.425-22.115 2.716-14.566-8.719-27.149-31.09-34.162-6.996-2.193-24.681-9.272-27.942-11.185-15.313-8.985-22.472-20.753-21.455-35.288 1.56-20.15 20.264-35.177 43.9-35.278 10.569-.021 21.116 2.175 31.248 6.445 3.588 1.512 9.994 4.998 12.205 6.649 1.274.935 1.525 2.026.795 3.202-.407.682-1.081 1.763-2.502 4.017l-.016.025a456.51 456.51 0 0 0-2.358 3.756c-.74 1.129-1.613 1.234-2.95.386-10.842-7.284-22.861-10.949-36.08-11.213-16.458.326-28.793 10.12-29.604 23.463-.216 12.05 8.823 20.849 28.347 27.557 39.63 12.735 54.796 27.665 51.942 51.206M133.54 17.604c25.801 0 46.833 24.485 47.816 55.136H85.724c.984-30.65 22.015-55.136 47.816-55.136m133.53 60.898c0-3.182-2.563-5.762-5.723-5.762H199.36C197.84 32.27 168.953 0 133.54 0 98.128 0 69.24 32.27 67.72 72.74l-62.075.001c-3.112.057-5.618 2.615-5.618 5.761 0 .15.006.3.017.447H0l8.849 195.06a23.05 23.05 0 0 0 .09 2.012l.02.412.021.021c1.345 13.574 11.195 24.506 24.59 25.01l.03.03h196.906a23.045 23.045 0 0 0 .56 0h.419l.009-.008c13.628-.372 24.667-11.457 25.833-25.198l.006-.007.01-.184c.01-.145.021-.288.03-.433.021-.346.036-.691.041-1.034L267.07 78.8h-.007c.006-.098.008-.198.008-.298m656.432 127.13c3.793-12.375 15.265-20.625 28.65-20.625 12.778 0 24.943 8.677 29.146 20.601l.288.82h-58.33zm71.066 17.928c.079.003.079.003.194.004.116 0 .116 0 .234-.004 2.793-.128 5.003-2.509 5.003-5.406 0-.14-.004-.262-.015-.456.002-.036.002-.107.002-.335 0-27.33-21.425-49.477-47.85-49.477-26.424 0-47.849 22.148-47.849 49.477 0 2.038.118 4.07.357 6.09l.016.107.074.533c1.316 9.834 5.512 18.859 12.139 26.162-.004-.003.003.004.037.042 7.347 8.086 17.323 13.596 28.387 15.657l.145.028v-.015l.718.12c.37.063.76.125 1.281.206 14.563 1.751 27.48-.348 38.419-5.856 2.693-1.358 5.115-2.855 7.214-4.437a31.883 31.883 0 0 0 1.807-1.464c.27-.238.487-.437.601-.553 2.468-2.543 2.622-3.444 1.133-5.765a252.436 252.436 0 0 0-4.325-6.672c-.433-.644-.81-1.193-1.129-1.649l-.286-.408c-.042-.062-.042-.062-.073-.101l-.016-.02c-1.348-1.679-2.271-1.832-3.768-.511-.16.141-.693.553-.79.655-10.522 9.344-24.891 12.35-39.24 9.348-2.673-.718-5.172-1.629-7.474-2.73-8.99-4.507-15.36-12.54-17.197-21.836l-.145-.734zm-184.927-17.928c3.794-12.375 15.265-20.625 28.651-20.625 12.777 0 24.942 8.677 29.146 20.601l.287.82h-58.329zm71.066 17.928c.08.003.08.003.195.004.115 0 .115 0 .233-.004 2.792-.128 5.003-2.509 5.003-5.406 0-.14-.005-.262-.016-.456.002-.036.002-.107.002-.335 0-27.33-21.424-49.477-47.849-49.477-26.422 0-47.849 22.148-47.849 49.477 0 2.038.12 4.07.358 6.09l.016.107.074.533c1.316 9.834 5.512 18.859 12.138 26.162l.037.042c7.348 8.086 17.323 13.596 28.387 15.657l.145.028v-.015l.718.12c.37.063.76.125 1.283.206 14.562 1.751 27.48-.348 38.416-5.856 2.694-1.358 5.116-2.855 7.214-4.437a31.883 31.883 0 0 0 1.808-1.464c.27-.238.486-.437.6-.553 2.468-2.543 2.622-3.444 1.133-5.765a252.462 252.462 0 0 0-4.324-6.672 129.11 129.11 0 0 0-1.128-1.649l-.287-.408c-.042-.062-.042-.062-.073-.101l-.01-.02c-1.35-1.679-2.273-1.832-3.77-.511-.16.141-.693.553-.79.655-10.52 9.344-24.891 12.35-39.24 9.348-2.672-.718-5.172-1.629-7.473-2.73-8.99-4.507-15.359-12.54-17.197-21.836l-.145-.734zm-157.963 27.25c-17.797 0-32.352-14.11-32.799-31.792v-1.664c.442-17.654 15.002-31.766 32.799-31.766 18.118 0 32.806 14.6 32.806 32.611 0 18.01-14.688 32.611-32.806 32.611m.01-82.522c-11.672 0-22.825 3.976-31.789 11.267l-1.018.829v-9.126c0-2.434-.523-2.97-2.987-2.97h-11.455c-2.495 0-2.987.496-2.987 2.97v145.474c0 2.39.557 2.97 2.987 2.97h11.455c2.44 0 2.987-.568 2.987-2.97v-60.667l1.018.828c8.965 7.293 20.118 11.268 31.79 11.268 27.743 0 50.235-22.358 50.235-49.937 0-27.578-22.492-49.936-50.236-49.936M604.78 249.695c-18.155 0-32.873-14.472-32.873-32.329s14.719-32.33 32.873-32.33c18.151 0 32.87 14.473 32.87 32.33 0 17.856-14.717 32.33-32.87 32.33m.01-81.81c-27.799 0-50.331 22.165-50.331 49.505 0 27.339 22.532 49.505 50.331 49.505 27.799 0 50.329-22.166 50.329-49.505 0-27.34-22.53-49.505-50.329-49.505m-112.198 1.1c-10.148 0-19.968 3.262-28.114 9.292l-.99.733v-67.56c0-2.24-.736-2.971-2.975-2.971h-11.99c-2.422 0-2.975.579-2.975 2.97v154.123c0 2.334.597 2.973 2.975 2.973h11.99c2.225 0 2.974-.767 2.974-2.973v-50.341c.125-15.847 13.122-28.638 29.105-28.638 16.024 0 29.036 12.853 29.104 28.752v50.227c0 2.55.424 2.972 2.975 2.972h11.961c2.536 0 2.975-.434 2.975-2.972V215.2c-.095-25.41-21.284-46.214-47.015-46.214M325.507 240.59l-.028.043c-1.71 2.59-2.426 3.68-2.826 4.305-1.348 2.007-1.18 2.9.878 4.64 4.804 3.873 10.979 7.94 15.145 9.977 11.59 5.668 24.11 8.664 37.377 8.935 8.57.432 19.335-1.606 27.35-5.18 14.51-6.474 23.753-19.09 25.373-34.63 2.624-25.179-13.76-40.92-55.959-53.604l-.011-.004c-19.661-6.34-28.897-14.77-28.9-26.54.578-13.008 12.64-22.726 28.911-23.332 13.108.032 24.697 3.514 36.083 10.841 2.401 1.457 3.508 1.188 5.123-.906.185-.31.701-1.06 2.86-4.159l.006-.01c2.016-2.895 2.68-3.861 2.845-4.147 1.36-2.56 1.165-3.546-1.29-5.287-2.418-1.732-9.23-5.277-13.124-6.831-10.834-4.322-22.034-6.421-33.18-6.205-25.368.551-45.152 17.05-46.456 38.693-.827 15.633 7.107 28.204 23.685 37.497 4.647 2.454 21.64 8.877 29.57 11.2 22.552 6.604 34.31 18.753 31.88 33.086-2.207 13.023-15.852 21.684-35 22.277-13.885-.29-27.875-5.378-40.022-14.507-.06-.044-.369-.273-.936-.696l-.918-.684c-2.476-1.71-3.933-1.568-5.445.685-.182.279-2.063 3.139-2.99 4.543" fill="#ee4d2d" fill-rule="evenodd"/></svg>